#!OML:ASF H:\MichaelJackson\Top Level 1\Subject 1\Session 1\male.ASF
:FULLY-SPECIFIED
:DEGREES
454
root 1.72706 15.7091 24.6843 8.92828 -2.95595 -6.43404
lowerback 8.47568 2.37692 2.93633
upperback 3.3525 3.40923 1.69985
thorax -1.20644 1.7058 -0.209087
lowerneck -4.67729 0.248989 5.36428
upperneck 2.77313 0.0794589 -2.2187
head 1.68379 0.0509496 -1.62449
rclavicle 3.62161e-014 4.5969e-015
rhumerus -38.8554 -2.05455 -86.8004
rradius 96.846
rwrist -13.1842
rhand -38.5463 -35.2061
rfingers 7.12502
rthumb -11.5661 -424.867
lclavicle 3.62161e-014 4.5969e-015
lhumerus -38.3421 -1.06607 74.1304
lradius 97.2878
lwrist 51.8827
lhand -27.6219 12.5319
lfingers 7.12502
lthumb -1.02071 42.5092
rfemur -18.5758 -0.590749 10.3926
rtibia 44.1898
rfoot -29.1573 -9.50775
rtoes -39.0152
lfemur -40.1407 4.47011 8.87458
ltibia 32.4636
lfoot -5.34352 20.0712
ltoes 26.7151
455
root 1.8334 15.6854 24.7738 8.77052 -3.21557 -6.72947
lowerback 8.69255 2.50315 3.15908
upperback 3.46649 3.60031 1.78483
thorax -1.19462 1.80241 -0.269699
lowerneck -4.60957 0.222317 5.36352
upperneck 2.62183 0.0479101 -2.23523
head 1.62153 0.0333278 -1.62884
rclavicle 1.59804e-014 1.20389e-014
rhumerus -39.6656 -0.946433 -88.2176
rradius 96.6295
rwrist -9.40952
rhand -37.9848 -33.8413
rfingers 7.12502
rthumb -11.0246 -423.532
lclavicle 1.59804e-014 1.20389e-014
lhumerus -39.359 -1.83028 76.143
lradius 98.2749
lwrist 50.2873
lhand -26.8651 11.7922
lfingers 7.12502
lthumb -0.289814 41.7718
rfemur -17.8154 -0.0515312 10.2702
rtibia 43.6316
rfoot -29.021 -9.95193
rtoes -39.4276
lfemur -39.777 5.0494 8.72024
ltibia 32.7943
lfoot -4.56968 19.9828
ltoes 24.1353
456
root 1.94159 15.6622 24.8642 8.61391 -3.46314 -7.01487
lowerback 8.90936 2.63559 3.33934
upperback 3.55531 3.79799 1.87575
thorax -1.21072 1.90151 -0.302571
lowerneck -4.61031 0.199586 5.35562
upperneck 2.63058 0.0179269 -2.23169
head 1.62317 0.0184546 -1.62717
rclavicle -1.94755e-014 -2.15029e-014
rhumerus -40.2311 -0.111319 -89.5278
rradius 96.0509
rwrist -6.41191
rhand -37.4121 -32.7966
rfingers 7.12502
rthumb -10.4722 -422.516
lclavicle -1.94755e-014 -2.15029e-014
lhumerus -40.2621 -2.50592 78.2118
lradius 99.0211
lwrist 49.5699
lhand -26.2916 11.1538
lfingers 7.12502
lthumb 0.264073 41.1333
rfemur -17.0202 0.606065 10.1517
rtibia 43.0242
rfoot -28.8082 -10.5086
rtoes -39.8124
lfemur -39.4514 5.54769 8.64062
ltibia 33.257
lfoot -3.80109 19.7694
ltoes 20.4819
457
root 2.05119 15.6394 24.9554 8.48515 -3.66459 -7.26429
lowerback 9.10083 2.76105 3.4681
upperback 3.61257 3.98278 1.95835
thorax -1.24821 1.99338 -0.314604
lowerneck -4.65598 0.174388 5.33358
upperneck 2.72596 -0.0180322 -2.19367
head 1.66029 0.00202822 -1.61301
rclavicle 3.37313e-015 1.03244e-014
rhumerus -40.5605 0.523799 -90.74
rradius 95.2482
rwrist -4.58526
rhand -36.9192 -32.1192
rfingers 7.12502
rthumb -9.9967 -421.862
lclavicle 3.37313e-015 1.03244e-014
lhumerus -41.0744 -3.14536 80.2761
lradius 99.5397
lwrist 49.5942
lhand -26.0109 10.5838
lfingers 7.12502
lthumb 0.535182 40.5629
rfemur -16.2257 1.34298 10.0186
rtibia 42.3971
rfoot -28.5196 -11.1807
rtoes -40.1632
lfemur -39.2377 6.01735 8.56954
ltibia 33.8627
lfoot -3.10578 19.436
ltoes 15.9995
458
root 2.1618 15.6168 25.0476 8.40214 -3.79375 -7.4581
lowerback 9.24191 2.87029 3.52806
upperback 3.64118 4.13939 2.03091
thorax -1.29245 2.07057 -0.294981
lowerneck -4.71849 0.140373 5.28841
upperneck 2.82365 -0.0665403 -2.12248
head 1.70036 -0.0202073 -1.58449
rclavicle 5.48273e-014 3.8266e-015
rhumerus -40.6945 1.04673 -91.8613
rradius 94.3643
rwrist -4.09958
rhand -36.6202 -31.7598
rfingers 7.12502
rthumb -9.70819 -421.516
lclavicle 5.48273e-014 3.8266e-015
lhumerus -41.8245 -3.78576 82.2947
lradius 99.8558
lwrist 50.1325
lhand -25.9283 10.0126
lfingers 7.12502
lthumb 0.614988 39.9914
rfemur -15.4593 2.12317 9.85684
rtibia 41.777
rfoot -28.1586 -11.9591
rtoes -40.4689
lfemur -39.2021 6.52668 8.43286
ltibia 34.6318
lfoot -2.54132 18.9709
ltoes 11.1398
459
root 2.27297 15.5938 25.1403 8.39632 -3.86871 -7.59372
lowerback 9.30227 2.96816 3.5137
upperback 3.64034 4.27189 2.08968
thorax -1.3282 2.13539 -0.242898
lowerneck -4.7854 0.0946117 5.21599
upperneck 2.86362 -0.13041 -2.02442
head 1.72166 -0.0504984 -1.54241
rclavicle -3.69243e-014 1.48095e-014
rhumerus -40.6975 1.53963 -92.911
rradius 93.5295
rwrist -4.84216
rhand -36.6023 -31.8166
rfingers 7.12502
rthumb -9.69096 -421.574
lclavicle -3.69243e-014 1.48095e-014
lhumerus -42.5336 -4.45269 84.2322
lradius 99.9912
lwrist 50.9079
lhand -26.0071 9.39694
lfingers 7.12502
lthumb 0.538862 39.376
rfemur -14.7752 2.93289 9.65732
rtibia 41.185
rfoot -27.7264 -12.815
rtoes -40.7216
lfemur -39.3929 7.17346 8.17081
ltibia 35.5799
lfoot -2.20379 18.3797
ltoes 6.6523
460
root 2.38479 15.5704 25.2335 8.45741 -3.86344 -7.66564
lowerback 9.28503 3.04576 3.43209
upperback 3.6167 4.36894 2.13753
thorax -1.3506 2.18242 -0.157874
lowerneck -4.83716 0.0321645 5.11637
upperneck 2.80428 -0.214478 -1.91411
head 1.70717 -0.0920338 -1.49119
rclavicle 6.76675e-014 2.29099e-014
rhumerus -40.6503 2.026 -93.8763
rradius 92.8217
rwrist -6.38637
rhand -36.8791 -32.2008
rfingers 7.12502
rthumb -9.95804 -421.945
lclavicle 6.76675e-014 2.29099e-014
lhumerus -43.2264 -5.17438 86.0762
lradius 99.9722
lwrist 51.6214
lhand -26.1876 8.72234
lfingers 7.12502
lthumb 0.364562 38.7018
rfemur -14.1571 3.72932 9.41594
rtibia 40.6267
rfoot -27.2308 -13.7338
rtoes -40.9277
lfemur -39.8304 7.96359 7.73781
ltibia 36.7036
lfoot -2.02103 17.6318
ltoes 2.72129
461
root 2.49739 15.5466 25.3272 8.57201 -3.76958 -7.68001
lowerback 9.20581 3.0962 3.30599
upperback 3.57747 4.42391 2.1733
thorax -1.35905 2.20861 -0.0534923
lowerneck -4.87891 -0.0451366 4.99745
upperneck 2.63813 -0.316439 -1.80298
head 1.65577 -0.143953 -1.43587
rclavicle -1.32316e-014 -3.41413e-014
rhumerus -40.6253 2.53001 -94.7665
rradius 92.2804
rwrist -8.14682
rhand -37.404 -32.7881
rfingers 7.12502
rthumb -10.4644 -422.508
lclavicle -1.32316e-014 -3.41413e-014
lhumerus -43.9163 -5.96751 87.8142
lradius 99.8277
lwrist 52.0127
lhand -26.3669 8.00303
lfingers 7.12502
lthumb 0.191385 37.9827
rfemur -13.5873 4.48365 9.13652
rtibia 40.0999
rfoot -26.6866 -14.6821
rtoes -41.0791
lfemur -40.5014 8.86502 7.12472
ltibia 37.9758
lfoot -1.93976 16.7126
ltoes -0.245786
